<?xml version="1.0" encoding="utf-8"?>
<!-- Generator: Adobe Illustrator 21.0.0, SVG Export Plug-In . SVG Version: 6.00 Build 0)  -->
<svg version="1.1" id="Layer_1" xmlns="http://www.w3.org/2000/svg" xmlns:xlink="http://www.w3.org/1999/xlink" x="0px" y="0px"
	 width="400px" height="400px" viewBox="0 0 400 400" style="enable-background:new 0 0 400 400;" xml:space="preserve">
<style type="text/css">
	.st0{fill:#FFFFFF;}
</style>
<g>
	<path class="st0" d="M308.5,96.6l13.1-43.2l-41.7-26.7l-33.6,30.1c-14.1-4.7-28.6-7.2-43.1-7.6L181.8,9.3l-48.5,10.8l-2.6,45.2
		c-12.9,6.4-25.1,14.9-35.8,25.1L51.7,77.4l-26.9,41.8l30.1,33.6c-4.8,14.1-7.2,28.6-7.6,43.1L7.5,217.3l10.8,48.5l45.2,2.6
		c6.6,12.9,14.9,25.1,25.1,35.8l-13.1,43.2l41.7,26.7l33.6-30.1c14.1,4.8,28.6,7.2,43.1,7.6l21.4,39.8l48.5-10.8l2.6-45.2
		c12.9-6.4,25.1-14.9,35.8-25.1l43.2,13.1l26.7-41.8L342,247.9c4.7-14.1,7.2-28.6,7.6-43.1l39.8-21.4L378.6,135l-44.9-2.6
		C327.1,119.5,318.8,107.4,308.5,96.6z M270.4,246.2c-25.2,39.5-77.8,51.4-117.6,26.1c-39.6-25.4-51.4-77.8-26.1-117.6
		c25.4-39.6,77.8-51.4,117.6-26.1C283.9,153.9,295.6,206.5,270.4,246.2z"/>
</g>
</svg>
