<?xml version="1.0" encoding="utf-8"?>
<!-- Generator: Adobe Illustrator 21.0.0, SVG Export Plug-In . SVG Version: 6.00 Build 0)  -->
<svg version="1.1" id="Layer_1" xmlns="http://www.w3.org/2000/svg" xmlns:xlink="http://www.w3.org/1999/xlink" x="0px" y="0px"
	 width="400px" height="400px" viewBox="0 0 400 400" style="enable-background:new 0 0 400 400;" xml:space="preserve">
<style type="text/css">
	.st0{fill:#FFFFFF;}
</style>
<g>
	<path class="st0" d="M339.4,145.4l28.3-35.2L339,69.8l-42.4,15.3c-11.3-9.6-23.8-17.4-37.1-23.2L254.6,17l-49-8.1l-19.3,40.9
		c-14.4,1.1-28.8,4.4-42.6,9.9l-35.2-28.3L67.9,60.1l15.3,42.4c-9.7,11.3-17.4,23.8-23.2,37.1l-44.9,4.9l-8.1,49l40.9,19.3
		c1.3,14.4,4.4,28.8,9.9,42.6l-28.3,35.2L58.2,331l42.4-15.3c11.3,9.7,23.8,17.4,37.1,23.2l4.9,44.9l49,8.1l19.3-40.9
		c14.4-1.1,28.8-4.4,42.6-9.9l35.2,28.3l40.4-28.8l-15.3-42.4c9.6-11.3,17.4-23.8,23.2-37.1l44.9-4.9l8.1-49L349.3,188
		C348,173.6,344.9,159.2,339.4,145.4z M248,269.8c-38.2,27.2-91.4,18.5-118.8-19.9c-27.2-38.4-18.5-91.4,19.9-118.8
		c38.4-27.2,91.4-18.5,118.8,19.9C295.1,189.3,286.3,242.4,248,269.8z"/>
</g>
</svg>
