<?xml version="1.0" encoding="utf-8"?>
<!-- Generator: Adobe Illustrator 21.0.0, SVG Export Plug-In . SVG Version: 6.00 Build 0)  -->
<svg version="1.1" id="Layer_1" xmlns="http://www.w3.org/2000/svg" xmlns:xlink="http://www.w3.org/1999/xlink" x="0px" y="0px"
	 width="545.2px" height="108.2px" viewBox="0 0 545.2 108.2" style="enable-background:new 0 0 545.2 108.2;" xml:space="preserve"
	>
<style type="text/css">
	.st0{display:none;}
	.st1{display:inline;fill:#FFFFFF;}
	.st2{clip-path:url(#SVGID_2_);}
	.st3{clip-path:url(#SVGID_4_);fill:#FAA21B;}
	.st4{clip-path:url(#SVGID_4_);fill:#808285;}
</style>
<g class="st0">
	<rect x="194.4" y="48.7" class="st1" width="18.5" height="50.6"/>
	<path class="st1" d="M203.6,24.3c-5.6,0-10.4,4.2-10.4,9.4s4.8,9.4,10.4,9.4c5.9,0,10.6-4.2,10.6-9.4
		C214.2,28.5,209.5,24.3,203.6,24.3z"/>
	<path class="st1" d="M268.1,67.9c0-15-8.8-20.2-24.2-20.2c-6.7,0-11.7,0.9-19.6,3.5l3.5,14c6-2.1,8.9-2.9,14.1-2.9
		c5.2,0,7.7,1.6,7.7,5.1v1.9c-4.8,0-7.4-1.5-13.1-1.5c-10.5,0-15.3,6.8-15.3,16.5c0,8.8,5.1,16.1,15.4,16.1c5.2,0,8.5-2,14-5.7h0.2
		l1.3,4.5h17c-0.6-2.9-1-5.8-1-8.9L268.1,67.9L268.1,67.9z M249.5,85.5c-3,1.8-4.2,2.7-6.1,2.7c-3.5,0-4.8-2.3-4.8-5.6
		c0-2.9,1.9-4.6,5.1-4.6c2.2,0,3.5,0.6,5.8,0.7V85.5z"/>
	<path class="st1" d="M106.6,47.5c-15.4,0-25.2,9.2-25.2,26.5c0,17.2,9.2,26.2,28.4,26.2c7.1,0,12-0.9,17.4-2.4l-3.1-13.3
		c-4.5,1.2-8.8,2-14.8,2c-5.9,0-11-3.8-11-8.1h31.1v-4.1C129.5,57.3,122.3,47.5,106.6,47.5z M114.6,67.6H98.3c0-4.5,3.9-8,8.3-8
		c4.2,0,7.9,3.3,7.9,7.7L114.6,67.6L114.6,67.6z"/>
	<path class="st1" d="M165.4,53.2h-0.2c-3-3.1-6.4-5.7-10.8-5.7c-13.8,0-20.3,9.4-20.3,26.6s8.8,26.3,21.4,26.3
		c4.5,0,9.3-3.5,11.2-6.2h0.2l0.5,5h16.5V27.1h-18.5L165.4,53.2L165.4,53.2z M165.4,81.3c-0.4,1.1-2.7,3.8-4.6,3.8
		c-4.6,0-7.7-2.9-7.7-11s1.7-11.3,7.2-11.3c2.3,0,4,2.1,5.1,4.3V81.3z"/>
	<path class="st1" d="M58.8,47.5c-5.8,0-11.6,3.8-13.8,8.9h-0.2c-2.2-6-7-8.9-13.8-8.9c-5.4,0-10.9,3.5-13.1,8.4h-0.2l-0.8-7.2H0
		v50.6h18.5V67.7c1.5-3,2.7-5.4,5.9-5.4c2.3,0,3.4,1.6,3.4,5.2v31.7h18.5V67.7c1.5-3,2.7-5.4,5.8-5.4c2.3,0,3.5,1.6,3.5,5.2v31.7
		h18.5V63.9C74.2,53.5,68.3,47.5,58.8,47.5z"/>
	<path class="st1" d="M529.4,67.8c-3.2-0.9-6.3-1.7-6.3-3.9c0-2.1,1.4-3.2,5.5-3.2c2.5,0,6.5,0.9,10.3,2l3.6-11.4
		c-4.1-1.1-8.5-2.3-13.6-2.3c-13,0-20.4,5.9-20.4,15.4c0,10.5,7.3,13.7,16.2,16.2c4.4,1.3,5.7,2.6,5.7,4.5c0,2.4-1.9,4-6.1,4
		c-4.4,0-8.9-1.5-14-3.2L507,97.6c6.8,2.1,12.5,3.2,17.2,3.2c16.2,0,20.8-8.3,20.8-17.1C545.2,73.5,538,70.2,529.4,67.8z"/>
	<path class="st1" d="M447,79.6L447,79.6c4.2-2.7,6.8-7.1,6.8-13.5c0-10.6-5.8-16.3-19.9-16.3h-18.8V100h14.3V82.5h4.8l6.6,17.5H456
		l-5.5-12.8C449.4,84.6,447.8,81.2,447,79.6z M434.3,70.7h-4.9v-9.1h4.9c3,0,4.8,1.8,4.8,4.5C439.1,68.8,437.4,70.7,434.3,70.7z"/>
	<path class="st1" d="M501.8,49.8h-16l-5.1,7.5c-1.6,2.4-4,6.5-5.3,9.1h-0.1V49.8H461V100h14.3V86.5l4.3-6.9h0.1
		c1.1,2.7,3.4,7.5,5.1,10.7l5,9.7h15.9l-17.5-31.6L501.8,49.8z"/>
	<path class="st1" d="M326.4,49.8l-3.8,17.9c-0.9,4.2-2.1,10.7-2.6,14.4h-0.1c-0.5-2.7-1.8-9.4-3.1-14.8l-4.3-17.5H304l-4.4,17.9
		c-1.1,4.5-2.4,11-3,14.5h-0.1c-0.5-3.8-1.8-10.8-2.8-15.4l-3.6-16.9h-14.3l13.4,50.2h14.3l2.7-11.4c0.8-3.5,1.7-7.8,1.8-9.6h0.1
		c0.4,2.6,1.2,6.8,1.8,9.4l2.7,11.7h14.2L340.5,50h-14.1V49.8z"/>
	<polygon class="st1" points="55.7,31.6 41.5,31.6 41.5,25.8 52.8,25.8 52.8,18.1 41.5,18.1 41.5,13.3 54.8,13.3 54.8,5.1 31.6,5.1 
		31.6,39.8 55.7,39.8 	"/>
	<polygon class="st1" points="9.4,39.8 19.3,39.8 19.3,13.3 28.6,13.3 28.6,5.1 0.1,5.1 0.1,13.3 9.4,13.3 	"/>
	<path class="st1" d="M102.4,40.4c9.7,0,16.1-6.3,16.1-17.9s-6.4-17.9-16.1-17.9s-16.1,6.3-16.1,17.9S92.6,40.4,102.4,40.4z
		 M102.4,12.9c3.5,0,5.9,3.2,5.9,9.5c0,6.4-2.4,9.5-5.9,9.5s-5.9-3.2-5.9-9.5S98.9,12.9,102.4,12.9z"/>
	<path class="st1" d="M132.6,22.6c1,1.8,3.1,5.3,4.7,7.7l6.3,9.5h8.7V5.1h-9.9v10c0,2.9,0.1,6.1,0.2,7.2h-0.1
		c-0.8-1.5-2.9-5-4.7-7.7l-6.3-9.5h-8.7v34.7h9.9V29.6c0-2.5-0.1-5.7-0.2-7H132.6z"/>
	<polygon class="st1" points="85.5,5.1 57.1,5.1 57.1,13.3 66.4,13.3 66.4,39.8 76.3,39.8 76.3,13.3 85.5,13.3 	"/>
	<path class="st1" d="M396.6,64.8l5-6.2l-5.1-7.1l-7.5,2.7c-2-1.7-4.2-3.1-6.5-4.1l-0.9-7.9l-8.6-1.4l-3.4,7.2
		c-2.5,0.2-5.1,0.8-7.5,1.7l-6.2-5l-7.1,5.1l2.7,7.5c-1.7,2-3.1,4.2-4.1,6.5l-7.9,0.9l-1.4,8.6l7.2,3.4c0.2,2.5,0.8,5.1,1.7,7.5
		l-5,6.2l5.1,7.1l7.5-2.7c2,1.7,4.2,3.1,6.5,4.1l0.9,7.9l8.6,1.4l3.4-7.2c2.5-0.2,5.1-0.8,7.5-1.7l6.2,5l7.1-5.1l-2.7-7.5
		c1.7-2,3.1-4.2,4.1-6.5l7.9-0.9l1.4-8.6l-7.2-3.4C398.1,69.8,397.5,67.2,396.6,64.8z M380.5,86.7c-6.7,4.8-16.1,3.2-20.9-3.5
		s-3.2-16.1,3.5-20.9s16.1-3.2,20.9,3.5S387.2,81.9,380.5,86.7z"/>
	<path class="st1" d="M422.4,44.5l3.9-5.7l-4-4.8c0.7-1.9,1.1-3.9,1.3-6l5.6-2.8l-1.3-6.8l-6.3-0.6c-0.8-1.8-1.9-3.6-3.3-5.1l2-5.9
		l-5.7-3.9l-4.8,4c-1.9-0.7-3.9-1.1-6-1.3L401.2,0l-6.8,1.3l-0.6,6.3c-1.8,0.8-3.6,1.9-5.1,3.3l-5.9-2l-3.9,5.7l4,4.8
		c-0.7,1.9-1.1,3.9-1.3,6l-5.6,2.8l1.3,6.8l6.3,0.6c0.8,1.8,1.9,3.6,3.3,5.1l-2,5.9l5.7,3.9l4.8-4c1.9,0.7,3.9,1.1,6,1.3l2.8,5.6
		l6.8-1.3l0.6-6.3c1.8-0.8,3.6-1.9,5.1-3.3L422.4,44.5z M412.3,33.3c-3.7,5.4-11.1,6.8-16.5,3.1s-6.8-11.1-3.1-16.5
		c3.7-5.4,11.1-6.8,16.5-3.1C414.7,20.6,416.1,28,412.3,33.3z"/>
</g>
<g>
	<g>
		<defs>
			<rect id="SVGID_1_" x="0.1" y="-0.5" width="544.9" height="108.2"/>
		</defs>
		<clipPath id="SVGID_2_">
			<use xlink:href="#SVGID_1_"  style="overflow:visible;"/>
		</clipPath>
		<g class="st2">
			<defs>
				<rect id="SVGID_3_" x="0" y="-0.6" width="545.3" height="108.3"/>
			</defs>
			<clipPath id="SVGID_4_">
				<use xlink:href="#SVGID_3_"  style="overflow:visible;"/>
			</clipPath>
			<path class="st3" d="M249.5,84.9c-3,1.8-4.2,2.7-6.1,2.7c-3.5,0-4.8-2.3-4.8-5.6c0-2.9,1.9-4.6,5.1-4.6c2.2,0,3.5,0.6,5.8,0.7
				V84.9z M269,98.6c-0.6-2.9-1-5.8-1-8.9V67.3c0-15-8.8-20.2-24.2-20.2c-6.7,0-11.7,0.9-19.6,3.5l3.5,14c6-2.1,8.9-2.9,14.1-2.9
				c5.2,0,7.7,1.6,7.7,5.1v1.9c-4.8,0-7.4-1.5-13.1-1.5c-10.5,0-15.3,6.8-15.3,16.5c0,8.8,5.1,16.1,15.4,16.1c5.2,0,8.5-2,14-5.7
				h0.2l1.3,4.5H269z M193.1,33.2c0,5.2,4.8,9.4,10.4,9.4c5.9,0,10.6-4.2,10.6-9.4c0-5.2-4.7-9.4-10.6-9.4
				C197.9,23.8,193.1,28,193.1,33.2 M212.9,48.1h-18.5v50.5h18.5V48.1z M165.4,80.7c-0.4,1.1-2.7,3.8-4.6,3.8c-4.6,0-7.7-2.9-7.7-11
				s1.7-11.3,7.2-11.3c2.3,0,4,2.1,5.1,4.3V80.7z M183.9,98.6v-72h-18.5v26h-0.2c-3-3.1-6.4-5.7-10.8-5.7
				c-13.8,0-20.3,9.4-20.3,26.6c0,17.2,8.8,26.3,21.4,26.3c4.5,0,9.3-3.5,11.2-6.2h0.2l0.5,5H183.9z M114.6,67H98.4
				c0-4.5,3.9-8,8.3-8c4.2,0,7.9,3.3,7.9,7.7V67z M129.5,77.8v-4.1c0-17-7.2-26.8-22.8-26.8c-15.4,0-25.2,9.2-25.2,26.5
				c0,17.2,9.2,26.2,28.4,26.2c7.1,0,12-0.9,17.4-2.4l-3.1-13.3c-4.5,1.2-8.8,2-14.8,2c-5.9,0-11-3.8-11-8.1H129.5z M74.3,98.6V63.3
				c0-10.4-5.9-16.4-15.4-16.4c-5.8,0-11.6,3.8-13.8,8.9h-0.2c-2.2-6-7-8.9-13.8-8.9c-5.4,0-10.9,3.5-13.1,8.4h-0.2l-0.8-7.2H0.1
				v50.5h18.5V67.1c1.5-3,2.7-5.4,5.9-5.4c2.3,0,3.4,1.6,3.4,5.2v31.7h18.5V67.1c1.5-3,2.7-5.4,5.8-5.4c2.3,0,3.5,1.6,3.5,5.2v31.7
				H74.3z"/>
			<path class="st4" d="M545,83c0-10.1-7.2-13.4-15.8-15.8c-3.2-0.9-6.3-1.7-6.3-3.9c0-2.1,1.4-3.2,5.5-3.2c2.5,0,6.5,0.9,10.3,2
				l3.6-11.4c-4.1-1.1-8.5-2.3-13.6-2.3c-13,0-20.4,5.9-20.4,15.3c0,10.5,7.3,13.7,16.2,16.2c4.4,1.3,5.7,2.6,5.7,4.5
				c0,2.4-1.9,4-6.1,4c-4.4,0-8.9-1.5-13.9-3.2L507,96.9c6.8,2.1,12.5,3.2,17.2,3.2C540.4,100.1,545,91.9,545,83 M505.5,99.4
				L488,67.8l13.5-18.6h-15.9l-5.1,7.5c-1.5,2.4-4,6.5-5.3,9.1H475V49.2h-14.3v50.2H475V85.9l4.3-6.9h0.1c1.1,2.7,3.4,7.5,5.1,10.7
				l5,9.7H505.5z M438.9,65.5c0,2.7-1.7,4.6-4.7,4.6h-4.9V61h4.9C437.1,61,438.9,62.8,438.9,65.5 M455.9,99.4l-5.5-12.8
				c-1.2-2.7-2.7-6-3.6-7.6v-0.1c4.2-2.6,6.8-7,6.8-13.4c0-10.6-5.8-16.3-19.9-16.3h-18.7v50.2h14.3V81.9h4.8l6.6,17.5H455.9z"/>
			<path class="st4" d="M340.5,49.2h-14.2l-3.8,17.9c-0.9,4.2-2.1,10.7-2.6,14.4h-0.1c-0.5-2.7-1.8-9.4-3.1-14.8l-4.3-17.5H304
				l-4.4,17.9c-1.1,4.5-2.4,11-3,14.5h-0.1c-0.5-3.8-1.8-10.8-2.8-15.4l-3.6-16.9h-14.3l13.4,50.2h14.2l2.7-11.4
				c0.8-3.5,1.7-7.7,1.8-9.6h0.1c0.4,2.6,1.2,6.8,1.8,9.4l2.7,11.7h14.2L340.5,49.2z"/>
			<path class="st4" d="M152.4,39.2V4.6h-9.9v10c0,2.9,0.1,6.1,0.2,7.2h-0.1c-0.8-1.5-2.9-5-4.7-7.7l-6.3-9.5h-8.7v34.6h9.9V29
				c0-2.5-0.1-5.7-0.2-7h0.1c1,1.8,3.1,5.2,4.7,7.7l6.3,9.5H152.4z M108.3,21.9c0,6.4-2.4,9.5-5.9,9.5c-3.5,0-5.9-3.2-5.9-9.5
				c0-6.3,2.4-9.5,5.9-9.5C105.9,12.4,108.3,15.6,108.3,21.9 M118.4,21.9c0-11.6-6.4-17.9-16-17.9c-9.7,0-16,6.3-16,17.9
				c0,11.6,6.3,17.9,16,17.9C112.1,39.8,118.4,33.5,118.4,21.9 M85.5,12.7V4.6H57.1v8.2h9.3v26.5h9.9V12.7H85.5z M55.7,39.2v-8.2
				H41.5v-5.9h11.3v-7.7H41.5v-4.8h13.3V4.6H31.6v34.6H55.7z M28.6,12.7V4.6H0.2v8.2h9.3v26.5h9.9V12.7H28.6z"/>
			<path class="st4" d="M382.3,49.5l-0.9-7.9l-8.6-1.4l-3.4,7.2c-2.5,0.2-5.1,0.8-7.5,1.7l-6.2-5l-7.1,5.1l2.7,7.5
				c-1.7,2-3.1,4.2-4.1,6.5l-7.9,0.9l-1.4,8.6l7.2,3.4c0.2,2.5,0.8,5.1,1.7,7.5l-5,6.2l5.1,7.1l7.5-2.7c2,1.7,4.2,3.1,6.5,4.1
				l0.9,7.9l8.6,1.4l3.4-7.2c2.5-0.2,5.1-0.8,7.5-1.7l6.2,5l7.1-5.1l-2.7-7.5c1.7-2,3.1-4.2,4.1-6.5l7.9-0.9l1.4-8.6l-7.2-3.4
				c-0.2-2.5-0.8-5.1-1.7-7.5l5-6.2l-5.1-7.1l-7.5,2.7C386.8,51.9,384.6,50.6,382.3,49.5 M380.3,86.1c-6.7,4.8-16.1,3.2-20.9-3.5
				c-4.8-6.7-3.2-16.1,3.5-20.9c6.7-4.8,16.1-3.2,20.9,3.5C388.6,71.9,387.1,81.3,380.3,86.1"/>
			<path class="st3" d="M403.8,5.1L401-0.5l-6.8,1.3L393.6,7c-1.8,0.8-3.6,1.9-5.1,3.3l-5.9-2l-3.9,5.7l4,4.8
				c-0.7,1.9-1.1,3.9-1.3,5.9l-5.6,2.8l1.3,6.8l6.3,0.6c0.8,1.8,1.9,3.6,3.3,5.1l-2,5.9l5.7,3.9l4.8-4c1.9,0.7,3.9,1.1,5.9,1.3
				l2.8,5.6l6.8-1.3l0.6-6.3c1.8-0.8,3.6-1.9,5.1-3.3l5.9,2l3.9-5.7l-4-4.8c0.7-1.9,1.1-3.9,1.3-6l5.6-2.8l-1.3-6.8l-6.3-0.6
				c-0.8-1.8-1.9-3.6-3.3-5.1l2-5.9l-5.7-3.9l-4.8,4C407.8,5.7,405.8,5.2,403.8,5.1 M412.2,32.8c-3.7,5.4-11.1,6.8-16.5,3.1
				c-5.4-3.7-6.8-11.1-3-16.5c3.7-5.4,11.1-6.8,16.5-3.1C414.5,20,415.9,27.4,412.2,32.8"/>
		</g>
	</g>
</g>
</svg>
