<svg width="86" height="86" viewBox="0 0 86 86" xmlns="http://www.w3.org/2000/svg"><title>Oval 1 + W</title><g fill="none" fill-rule="evenodd"><circle fill="#98C475" cx="43" cy="43" r="43"/><path d="M45.604 31.92c.376 1.284.79 2.732 1.245 4.345.454 1.613.94 3.28 1.456 5.003a649.352 649.352 0 0 0 1.574 5.168 178.42 178.42 0 0 0 1.55 4.792 190.49 190.49 0 0 0 1.246-5.215c.422-1.879.822-3.82 1.198-5.825.375-2.005.743-4.001 1.104-5.99.36-1.989.696-3.907 1.01-5.755h7.61a337.456 337.456 0 0 1-3.781 16.584A240.97 240.97 0 0 1 55.188 61H48.47a215.319 215.319 0 0 1-3.195-9.466 1042.842 1042.842 0 0 1-3.053-9.937c-1.003 3.32-2.005 6.632-3.007 9.937A181.206 181.206 0 0 1 36.067 61H29.35a240.97 240.97 0 0 1-4.628-15.973 337.456 337.456 0 0 1-3.781-16.584h7.94c.312 1.848.657 3.766 1.033 5.755.376 1.989.767 3.985 1.174 5.99.407 2.004.822 3.946 1.245 5.825.423 1.88.854 3.618 1.292 5.215a98.8 98.8 0 0 0 1.644-4.886c.533-1.722 1.05-3.445 1.55-5.168a212.77 212.77 0 0 0 1.387-4.98c.423-1.597.806-3.022 1.15-4.275h6.25z" fill="#FFF"/></g></svg>