<svg id="Layer_1" xmlns="http://www.w3.org/2000/svg" width="400" height="400" viewBox="0 0 400 400"><style>.st0{fill:#fff}</style><path class="st0" d="M308.5 96.6l13.1-43.2-41.7-26.7-33.6 30.1c-14.1-4.7-28.6-7.2-43.1-7.6L181.8 9.3l-48.5 10.8-2.6 45.2c-12.9 6.4-25.1 14.9-35.8 25.1l-43.2-13-26.9 41.8 30.1 33.6c-4.8 14.1-7.2 28.6-7.6 43.1L7.5 217.3l10.8 48.5 45.2 2.6c6.6 12.9 14.9 25.1 25.1 35.8l-13.1 43.2 41.7 26.7 33.6-30.1c14.1 4.8 28.6 7.2 43.1 7.6l21.4 39.8 48.5-10.8 2.6-45.2c12.9-6.4 25.1-14.9 35.8-25.1l43.2 13.1 26.7-41.8-30.1-33.7c4.7-14.1 7.2-28.6 7.6-43.1l39.8-21.4-10.8-48.4-44.9-2.6c-6.6-12.9-14.9-25-25.2-35.8zm-38.1 149.6c-25.2 39.5-77.8 51.4-117.6 26.1-39.6-25.4-51.4-77.8-26.1-117.6 25.4-39.6 77.8-51.4 117.6-26.1 39.6 25.3 51.3 77.9 26.1 117.6z"/></svg>