<svg id="Layer_1" xmlns="http://www.w3.org/2000/svg" width="400" height="400" viewBox="0 0 400 400"><style>.st0{fill:#fff}</style><path class="st0" d="M339.4 145.4l28.3-35.2L339 69.8l-42.4 15.3c-11.3-9.6-23.8-17.4-37.1-23.2L254.6 17l-49-8.1-19.3 40.9c-14.4 1.1-28.8 4.4-42.6 9.9l-35.2-28.3-40.6 28.7 15.3 42.4c-9.7 11.3-17.4 23.8-23.2 37.1l-44.9 4.9-8.1 49 40.9 19.3c1.3 14.4 4.4 28.8 9.9 42.6l-28.3 35.2L58.2 331l42.4-15.3c11.3 9.7 23.8 17.4 37.1 23.2l4.9 44.9 49 8.1 19.3-40.9c14.4-1.1 28.8-4.4 42.6-9.9l35.2 28.3 40.4-28.8-15.3-42.4c9.6-11.3 17.4-23.8 23.2-37.1l44.9-4.9 8.1-49-40.7-19.2c-1.3-14.4-4.4-28.8-9.9-42.6zM248 269.8c-38.2 27.2-91.4 18.5-118.8-19.9-27.2-38.4-18.5-91.4 19.9-118.8 38.4-27.2 91.4-18.5 118.8 19.9 27.2 38.3 18.4 91.4-19.9 118.8z"/></svg>