<svg id="Layer_1" xmlns="http://www.w3.org/2000/svg" xmlns:xlink="http://www.w3.org/1999/xlink" width="545.2" height="108.2" viewBox="0 0 545.2 108.2"><style>.st0{display:none}.st1{display:inline;fill:#fff}.st2{clip-path:url(#SVGID_2_)}.st3,.st4{clip-path:url(#SVGID_4_);fill:#faa21b}.st4{fill:#808285}</style><g class="st0"><path class="st1" d="M194.4 48.7h18.5v50.6h-18.5zM203.6 24.3c-5.6 0-10.4 4.2-10.4 9.4s4.8 9.4 10.4 9.4c5.9 0 10.6-4.2 10.6-9.4s-4.7-9.4-10.6-9.4zM268.1 67.9c0-15-8.8-20.2-24.2-20.2-6.7 0-11.7.9-19.6 3.5l3.5 14c6-2.1 8.9-2.9 14.1-2.9 5.2 0 7.7 1.6 7.7 5.1v1.9c-4.8 0-7.4-1.5-13.1-1.5-10.5 0-15.3 6.8-15.3 16.5 0 8.8 5.1 16.1 15.4 16.1 5.2 0 8.5-2 14-5.7h.2l1.3 4.5h17c-.6-2.9-1-5.8-1-8.9V67.9zm-18.6 17.6c-3 1.8-4.2 2.7-6.1 2.7-3.5 0-4.8-2.3-4.8-5.6 0-2.9 1.9-4.6 5.1-4.6 2.2 0 3.5.6 5.8.7v6.8zM106.6 47.5c-15.4 0-25.2 9.2-25.2 26.5 0 17.2 9.2 26.2 28.4 26.2 7.1 0 12-.9 17.4-2.4l-3.1-13.3c-4.5 1.2-8.8 2-14.8 2-5.9 0-11-3.8-11-8.1h31.1v-4.1c.1-17-7.1-26.8-22.8-26.8zm8 20.1H98.3c0-4.5 3.9-8 8.3-8 4.2 0 7.9 3.3 7.9 7.7l.1.3zM165.4 53.2h-.2c-3-3.1-6.4-5.7-10.8-5.7-13.8 0-20.3 9.4-20.3 26.6s8.8 26.3 21.4 26.3c4.5 0 9.3-3.5 11.2-6.2h.2l.5 5h16.5V27.1h-18.5v26.1zm0 28.1c-.4 1.1-2.7 3.8-4.6 3.8-4.6 0-7.7-2.9-7.7-11s1.7-11.3 7.2-11.3c2.3 0 4 2.1 5.1 4.3v14.2zM58.8 47.5c-5.8 0-11.6 3.8-13.8 8.9h-.2c-2.2-6-7-8.9-13.8-8.9-5.4 0-10.9 3.5-13.1 8.4h-.2l-.8-7.2H0v50.6h18.5V67.7c1.5-3 2.7-5.4 5.9-5.4 2.3 0 3.4 1.6 3.4 5.2v31.7h18.5V67.7c1.5-3 2.7-5.4 5.8-5.4 2.3 0 3.5 1.6 3.5 5.2v31.7h18.5V63.9c.1-10.4-5.8-16.4-15.3-16.4zM529.4 67.8c-3.2-.9-6.3-1.7-6.3-3.9 0-2.1 1.4-3.2 5.5-3.2 2.5 0 6.5.9 10.3 2l3.6-11.4c-4.1-1.1-8.5-2.3-13.6-2.3-13 0-20.4 5.9-20.4 15.4 0 10.5 7.3 13.7 16.2 16.2 4.4 1.3 5.7 2.6 5.7 4.5 0 2.4-1.9 4-6.1 4-4.4 0-8.9-1.5-14-3.2L507 97.6c6.8 2.1 12.5 3.2 17.2 3.2 16.2 0 20.8-8.3 20.8-17.1.2-10.2-7-13.5-15.6-15.9zM447 79.6c4.2-2.7 6.8-7.1 6.8-13.5 0-10.6-5.8-16.3-19.9-16.3h-18.8V100h14.3V82.5h4.8l6.6 17.5H456l-5.5-12.8c-1.1-2.6-2.7-6-3.5-7.6zm-12.7-8.9h-4.9v-9.1h4.9c3 0 4.8 1.8 4.8 4.5s-1.7 4.6-4.8 4.6zM501.8 49.8h-16l-5.1 7.5c-1.6 2.4-4 6.5-5.3 9.1h-.1V49.8H461V100h14.3V86.5l4.3-6.9h.1c1.1 2.7 3.4 7.5 5.1 10.7l5 9.7h15.9l-17.5-31.6 13.6-18.6zM326.4 49.8l-3.8 17.9c-.9 4.2-2.1 10.7-2.6 14.4h-.1c-.5-2.7-1.8-9.4-3.1-14.8l-4.3-17.5H304l-4.4 17.9c-1.1 4.5-2.4 11-3 14.5h-.1c-.5-3.8-1.8-10.8-2.8-15.4l-3.6-16.9h-14.3l13.4 50.2h14.3l2.7-11.4c.8-3.5 1.7-7.8 1.8-9.6h.1c.4 2.6 1.2 6.8 1.8 9.4l2.7 11.7h14.2L340.5 50h-14.1v-.2zM55.7 31.6H41.5v-5.8h11.3v-7.7H41.5v-4.8h13.3V5.1H31.6v34.7h24.1zM9.4 39.8h9.9V13.3h9.3V5.1H.1v8.2h9.3zM102.4 40.4c9.7 0 16.1-6.3 16.1-17.9s-6.4-17.9-16.1-17.9-16.1 6.3-16.1 17.9 6.3 17.9 16.1 17.9zm0-27.5c3.5 0 5.9 3.2 5.9 9.5 0 6.4-2.4 9.5-5.9 9.5s-5.9-3.2-5.9-9.5 2.4-9.5 5.9-9.5z"/><path class="st1" d="M132.6 22.6c1 1.8 3.1 5.3 4.7 7.7l6.3 9.5h8.7V5.1h-9.9v10c0 2.9.1 6.1.2 7.2h-.1c-.8-1.5-2.9-5-4.7-7.7l-6.3-9.5h-8.7v34.7h9.9V29.6c0-2.5-.1-5.7-.2-7h.1zM85.5 5.1H57.1v8.2h9.3v26.5h9.9V13.3h9.2zM396.6 64.8l5-6.2-5.1-7.1-7.5 2.7c-2-1.7-4.2-3.1-6.5-4.1l-.9-7.9-8.6-1.4-3.4 7.2c-2.5.2-5.1.8-7.5 1.7l-6.2-5-7.1 5.1 2.7 7.5c-1.7 2-3.1 4.2-4.1 6.5l-7.9.9-1.4 8.6 7.2 3.4c.2 2.5.8 5.1 1.7 7.5l-5 6.2 5.1 7.1 7.5-2.7c2 1.7 4.2 3.1 6.5 4.1l.9 7.9 8.6 1.4 3.4-7.2c2.5-.2 5.1-.8 7.5-1.7l6.2 5 7.1-5.1-2.7-7.5c1.7-2 3.1-4.2 4.1-6.5l7.9-.9 1.4-8.6-7.2-3.4c-.2-2.5-.8-5.1-1.7-7.5zm-16.1 21.9c-6.7 4.8-16.1 3.2-20.9-3.5s-3.2-16.1 3.5-20.9 16.1-3.2 20.9 3.5 3.2 16.1-3.5 20.9z"/><path class="st1" d="M422.4 44.5l3.9-5.7-4-4.8c.7-1.9 1.1-3.9 1.3-6l5.6-2.8-1.3-6.8-6.3-.6c-.8-1.8-1.9-3.6-3.3-5.1l2-5.9-5.7-3.9-4.8 4c-1.9-.7-3.9-1.1-6-1.3L401.2 0l-6.8 1.3-.6 6.3c-1.8.8-3.6 1.9-5.1 3.3l-5.9-2-3.9 5.7 4 4.8c-.7 1.9-1.1 3.9-1.3 6l-5.6 2.8 1.3 6.8 6.3.6c.8 1.8 1.9 3.6 3.3 5.1l-2 5.9 5.7 3.9 4.8-4c1.9.7 3.9 1.1 6 1.3l2.8 5.6 6.8-1.3.6-6.3c1.8-.8 3.6-1.9 5.1-3.3l5.7 2zm-10.1-11.2c-3.7 5.4-11.1 6.8-16.5 3.1s-6.8-11.1-3.1-16.5c3.7-5.4 11.1-6.8 16.5-3.1 5.5 3.8 6.9 11.2 3.1 16.5z"/></g><defs><path id="SVGID_1_" d="M.1-.5H545v108.2H.1z"/></defs><clipPath id="SVGID_2_"><use xlink:href="#SVGID_1_" overflow="visible"/></clipPath><g class="st2"><defs><path id="SVGID_3_" d="M0-.6h545.3v108.3H0z"/></defs><clipPath id="SVGID_4_"><use xlink:href="#SVGID_3_" overflow="visible"/></clipPath><path class="st3" d="M249.5 84.9c-3 1.8-4.2 2.7-6.1 2.7-3.5 0-4.8-2.3-4.8-5.6 0-2.9 1.9-4.6 5.1-4.6 2.2 0 3.5.6 5.8.7v6.8zM269 98.6c-.6-2.9-1-5.8-1-8.9V67.3c0-15-8.8-20.2-24.2-20.2-6.7 0-11.7.9-19.6 3.5l3.5 14c6-2.1 8.9-2.9 14.1-2.9 5.2 0 7.7 1.6 7.7 5.1v1.9c-4.8 0-7.4-1.5-13.1-1.5-10.5 0-15.3 6.8-15.3 16.5 0 8.8 5.1 16.1 15.4 16.1 5.2 0 8.5-2 14-5.7h.2l1.3 4.5h17zm-75.9-65.4c0 5.2 4.8 9.4 10.4 9.4 5.9 0 10.6-4.2 10.6-9.4s-4.7-9.4-10.6-9.4c-5.6 0-10.4 4.2-10.4 9.4m19.8 14.9h-18.5v50.5h18.5V48.1zm-47.5 32.6c-.4 1.1-2.7 3.8-4.6 3.8-4.6 0-7.7-2.9-7.7-11s1.7-11.3 7.2-11.3c2.3 0 4 2.1 5.1 4.3v14.2zm18.5 17.9v-72h-18.5v26h-.2c-3-3.1-6.4-5.7-10.8-5.7-13.8 0-20.3 9.4-20.3 26.6 0 17.2 8.8 26.3 21.4 26.3 4.5 0 9.3-3.5 11.2-6.2h.2l.5 5h16.5zM114.6 67H98.4c0-4.5 3.9-8 8.3-8 4.2 0 7.9 3.3 7.9 7.7v.3zm14.9 10.8v-4.1c0-17-7.2-26.8-22.8-26.8-15.4 0-25.2 9.2-25.2 26.5 0 17.2 9.2 26.2 28.4 26.2 7.1 0 12-.9 17.4-2.4l-3.1-13.3c-4.5 1.2-8.8 2-14.8 2-5.9 0-11-3.8-11-8.1h31.1zM74.3 98.6V63.3c0-10.4-5.9-16.4-15.4-16.4-5.8 0-11.6 3.8-13.8 8.9h-.2c-2.2-6-7-8.9-13.8-8.9-5.4 0-10.9 3.5-13.1 8.4h-.2l-.8-7.2H.1v50.5h18.5V67.1c1.5-3 2.7-5.4 5.9-5.4 2.3 0 3.4 1.6 3.4 5.2v31.7h18.5V67.1c1.5-3 2.7-5.4 5.8-5.4 2.3 0 3.5 1.6 3.5 5.2v31.7h18.6z"/><path class="st4" d="M545 83c0-10.1-7.2-13.4-15.8-15.8-3.2-.9-6.3-1.7-6.3-3.9 0-2.1 1.4-3.2 5.5-3.2 2.5 0 6.5.9 10.3 2l3.6-11.4c-4.1-1.1-8.5-2.3-13.6-2.3-13 0-20.4 5.9-20.4 15.3 0 10.5 7.3 13.7 16.2 16.2 4.4 1.3 5.7 2.6 5.7 4.5 0 2.4-1.9 4-6.1 4-4.4 0-8.9-1.5-13.9-3.2L507 96.9c6.8 2.1 12.5 3.2 17.2 3.2 16.2 0 20.8-8.2 20.8-17.1m-39.5 16.4L488 67.8l13.5-18.6h-15.9l-5.1 7.5c-1.5 2.4-4 6.5-5.3 9.1h-.2V49.2h-14.3v50.2H475V85.9l4.3-6.9h.1c1.1 2.7 3.4 7.5 5.1 10.7l5 9.7h16zm-66.6-33.9c0 2.7-1.7 4.6-4.7 4.6h-4.9V61h4.9c2.9 0 4.7 1.8 4.7 4.5m17 33.9l-5.5-12.8c-1.2-2.7-2.7-6-3.6-7.6v-.1c4.2-2.6 6.8-7 6.8-13.4 0-10.6-5.8-16.3-19.9-16.3H415v50.2h14.3V81.9h4.8l6.6 17.5h15.2zM340.5 49.2h-14.2l-3.8 17.9c-.9 4.2-2.1 10.7-2.6 14.4h-.1c-.5-2.7-1.8-9.4-3.1-14.8l-4.3-17.5H304l-4.4 17.9c-1.1 4.5-2.4 11-3 14.5h-.1c-.5-3.8-1.8-10.8-2.8-15.4l-3.6-16.9h-14.3l13.4 50.2h14.2l2.7-11.4c.8-3.5 1.7-7.7 1.8-9.6h.1c.4 2.6 1.2 6.8 1.8 9.4l2.7 11.7h14.2l13.8-50.4zM152.4 39.2V4.6h-9.9v10c0 2.9.1 6.1.2 7.2h-.1c-.8-1.5-2.9-5-4.7-7.7l-6.3-9.5h-8.7v34.6h9.9V29c0-2.5-.1-5.7-.2-7h.1c1 1.8 3.1 5.2 4.7 7.7l6.3 9.5h8.7zm-44.1-17.3c0 6.4-2.4 9.5-5.9 9.5-3.5 0-5.9-3.2-5.9-9.5s2.4-9.5 5.9-9.5c3.5 0 5.9 3.2 5.9 9.5m10.1 0c0-11.6-6.4-17.9-16-17.9-9.7 0-16 6.3-16 17.9 0 11.6 6.3 17.9 16 17.9s16-6.3 16-17.9m-32.9-9.2V4.6H57.1v8.2h9.3v26.5h9.9V12.7h9.2zM55.7 39.2V31H41.5v-5.9h11.3v-7.7H41.5v-4.8h13.3v-8H31.6v34.6h24.1zM28.6 12.7V4.6H.2v8.2h9.3v26.5h9.9V12.7h9.2zM382.3 49.5l-.9-7.9-8.6-1.4-3.4 7.2c-2.5.2-5.1.8-7.5 1.7l-6.2-5-7.1 5.1 2.7 7.5c-1.7 2-3.1 4.2-4.1 6.5l-7.9.9-1.4 8.6 7.2 3.4c.2 2.5.8 5.1 1.7 7.5l-5 6.2 5.1 7.1 7.5-2.7c2 1.7 4.2 3.1 6.5 4.1l.9 7.9 8.6 1.4 3.4-7.2c2.5-.2 5.1-.8 7.5-1.7l6.2 5 7.1-5.1-2.7-7.5c1.7-2 3.1-4.2 4.1-6.5l7.9-.9 1.4-8.6-7.2-3.4c-.2-2.5-.8-5.1-1.7-7.5l5-6.2-5.1-7.1-7.5 2.7c-2-1.7-4.2-3-6.5-4.1m-2 36.6c-6.7 4.8-16.1 3.2-20.9-3.5-4.8-6.7-3.2-16.1 3.5-20.9 6.7-4.8 16.1-3.2 20.9 3.5 4.8 6.7 3.3 16.1-3.5 20.9"/><path class="st3" d="M403.8 5.1L401-.5 394.2.8l-.6 6.2c-1.8.8-3.6 1.9-5.1 3.3l-5.9-2-3.9 5.7 4 4.8c-.7 1.9-1.1 3.9-1.3 5.9l-5.6 2.8 1.3 6.8 6.3.6c.8 1.8 1.9 3.6 3.3 5.1l-2 5.9 5.7 3.9 4.8-4c1.9.7 3.9 1.1 5.9 1.3l2.8 5.6 6.8-1.3.6-6.3c1.8-.8 3.6-1.9 5.1-3.3l5.9 2 3.9-5.7-4-4.8c.7-1.9 1.1-3.9 1.3-6l5.6-2.8-1.3-6.8-6.3-.6c-.8-1.8-1.9-3.6-3.3-5.1l2-5.9-5.7-3.9-4.8 4c-1.9-.5-3.9-1-5.9-1.1m8.4 27.7c-3.7 5.4-11.1 6.8-16.5 3.1-5.4-3.7-6.8-11.1-3-16.5 3.7-5.4 11.1-6.8 16.5-3.1 5.3 3.7 6.7 11.1 3 16.5"/></g></svg>